<svg height="512pt" viewBox="-27 0 512 512.001" width="512pt" xmlns="http://www.w3.org/2000/svg"><path d="m419.460938 68.800781h-380.773438c-17.222656 0-31.1875 13.960938-31.1875 31.183594v373.328125c0 17.226562 13.964844 31.1875 31.1875 31.1875h290.261719l121.699219-121.695312v-282.820313c-.003907-17.222656-13.964844-31.183594-31.1875-31.183594zm0 0" fill="#fd7b68"/><path d="m419.460938 68.800781h-21.519532v366.710938l52.703125-52.707031v-282.820313c0-17.222656-13.960937-31.183594-31.183593-31.183594zm0 0" fill="#ee4646"/><path d="m450.644531 382.804688-121.695312 121.695312v-98.820312c0-12.632813 10.242187-22.875 22.875-22.875zm0 0" fill="#faaa3c"/><path d="m99.609375 178.085938c22 0 39.898437-17.898438 39.898437-39.898438v-130.6875c0-4.140625-3.355468-7.5-7.5-7.5-4.144531 0-7.5 3.359375-7.5 7.5v53.800781h-9.40625v-33.605469c0-15.269531-12.425781-27.695312-27.695312-27.695312s-27.695312 12.425781-27.695312 27.695312v110.492188c0 22 17.898437 39.898438 39.898437 39.898438zm24.898437-39.898438c0 13.730469-11.167968 24.898438-24.898437 24.898438-13.726563 0-24.898437-11.167969-24.898437-24.898438v-61.886719h49.796874zm-37.101562-123.1875c7 0 12.695312 5.695312 12.695312 12.695312v33.605469h-25.390624v-33.605469c0-7 5.695312-12.695312 12.695312-12.695312zm0 0"/><path d="m64.078125 409.894531h132.101563c4.140624 0 7.5-3.359375 7.5-7.5 0-4.144531-3.359376-7.5-7.5-7.5h-132.101563c-4.144531 0-7.5 3.355469-7.5 7.5 0 4.140625 3.355469 7.5 7.5 7.5zm0 0"/><path d="m64.078125 348.179688h329.992187c4.140626 0 7.5-3.359376 7.5-7.5 0-4.140626-3.359374-7.5-7.5-7.5h-329.992187c-4.144531 0-7.5 3.359374-7.5 7.5 0 4.140624 3.355469 7.5 7.5 7.5zm0 0"/><path d="m64.078125 284.464844h329.992187c4.140626 0 7.5-3.359375 7.5-7.5s-3.359374-7.5-7.5-7.5h-329.992187c-4.144531 0-7.5 3.359375-7.5 7.5s3.355469 7.5 7.5 7.5zm0 0"/><path d="m64.078125 220.75h329.992187c4.140626 0 7.5-3.355469 7.5-7.5 0-4.140625-3.359374-7.5-7.5-7.5h-329.992187c-4.144531 0-7.5 3.359375-7.5 7.5 0 4.144531 3.355469 7.5 7.5 7.5zm0 0"/><path d="m419.460938 61.300781h-252.554688c-4.144531 0-7.5 3.355469-7.5 7.5 0 4.140625 3.355469 7.5 7.5 7.5h252.554688c13.058593 0 23.6875 10.625 23.6875 23.683594v275.320313h-91.320313c-16.75 0-30.375 13.625-30.375 30.375v91.320312h-282.765625c-13.0625 0-23.6875-10.625-23.6875-23.6875v-373.328125c0-11.203125 7.953125-20.960937 18.902344-23.203125 1.5625-.320312 3.171875-.480469 4.785156-.480469 4.140625 0 7.5-3.359375 7.5-7.5 0-4.144531-3.359375-7.5-7.5-7.5-2.617188 0-5.238281.261719-7.789062.785157-17.902344 3.664062-30.898438 19.601562-30.898438 37.898437v373.328125c0 21.332031 17.355469 38.6875 38.6875 38.6875h290.261719c1.992187 0 3.898437-.789062 5.304687-2.195312l121.695313-121.695313c1.40625-1.40625 2.195312-3.316406 2.195312-5.304687v-282.820313c0-21.332031-17.351562-38.683594-38.683593-38.683594zm-67.636719 329.003907h80.714843l-96.089843 96.089843v-80.714843c0-8.480469 6.898437-15.375 15.375-15.375zm0 0"/></svg>